<?xml version="1.0" encoding="UTF-8"?>
<svg xmlns="http://www.w3.org/2000/svg" id="Layer_1" data-name="Layer 1" viewBox="0 0 492.8 169.98">
  <g>
    <path d="M218.73,169.7l-.85-1.06c-1.03.9-2.03,1.34-3.02,1.34-.89,0-1.62-.29-2.21-.88-.59-.58-.88-1.32-.88-2.2,0-1.14.51-2.05,1.53-2.74l.63-.43c-.57-.79-.85-1.54-.85-2.24,0-.77.26-1.4.77-1.89.51-.49,1.15-.73,1.92-.73s1.42.24,1.93.72c.51.48.77,1.11.77,1.88,0,.94-.58,1.79-1.74,2.55l1.47,1.89,1.06-1.36,1.3,1.22-1.13,1.53,1.82,2.41h-2.51ZM216.66,167.22l-1.64-2.2c-.24.18-.43.33-.57.46s-.28.31-.41.53c-.14.22-.2.46-.2.7,0,.35.13.67.38.97.25.3.55.45.88.45.2,0,.4-.05.61-.16s.37-.21.48-.31c.11-.1.27-.25.48-.44ZM215.26,162.1l.5.71.35-.29c.39-.34.59-.72.59-1.15,0-.27-.07-.51-.22-.72-.15-.21-.35-.32-.6-.32-.27,0-.48.1-.64.29-.15.19-.23.42-.23.69,0,.29.08.55.25.78Z" fill="#dead1f" stroke-width="0"></path>
    <path d="M231.35,165.75v3.95h-2.06v-10.56h2.8c2.44,0,3.65,1.09,3.65,3.28,0,1.11-.29,1.94-.87,2.5-.58.56-1.41.83-2.51.83h-1.02ZM231.35,160.85v3.19h.42c.66,0,1.14-.11,1.44-.34.29-.22.44-.66.44-1.3s-.16-1.04-.48-1.25c-.32-.21-.8-.31-1.46-.31h-.36Z" fill="#dead1f" stroke-width="0"></path>
    <path d="M243.01,165.25l2.98,4.45h-2.49l-2.56-4.26h-.03v4.26h-2.06v-10.56h2.79c1.1,0,1.96.26,2.59.78.62.52.94,1.32.94,2.4,0,.71-.19,1.35-.57,1.91-.38.56-.91.9-1.58,1.01ZM240.91,160.82v3.18h.27c.62,0,1.1-.12,1.43-.36.33-.24.5-.66.5-1.27s-.17-1.02-.5-1.23c-.33-.21-.8-.32-1.42-.32h-.28Z" fill="#dead1f" stroke-width="0"></path>
    <path d="M257.28,160.44c.97,1.05,1.45,2.37,1.45,3.97s-.48,2.92-1.43,3.98c-.95,1.06-2.22,1.59-3.79,1.59s-2.84-.53-3.79-1.59c-.95-1.06-1.43-2.39-1.43-3.98s.48-2.92,1.45-3.97c.97-1.05,2.22-1.57,3.77-1.57s2.81.52,3.77,1.57ZM256.6,164.32c0-.91-.29-1.7-.85-2.39-.57-.69-1.32-1.04-2.24-1.04s-1.67.35-2.24,1.04c-.57.69-.85,1.49-.85,2.39,0,.43.06.85.17,1.26.11.41.29.8.52,1.16.23.36.56.66.97.88.42.22.89.33,1.43.33s1.02-.11,1.44-.33c.42-.22.74-.51.97-.88.23-.36.41-.75.52-1.16.11-.41.17-.83.17-1.26Z" fill="#dead1f" stroke-width="0"></path>
    <path d="M263.64,165.75v3.95h-2.06v-10.56h2.8c2.44,0,3.65,1.09,3.65,3.28,0,1.11-.29,1.94-.87,2.5-.58.56-1.41.83-2.51.83h-1.02ZM263.64,160.85v3.19h.42c.66,0,1.14-.11,1.43-.34.29-.22.44-.66.44-1.3s-.16-1.04-.48-1.25c-.32-.21-.8-.31-1.46-.31h-.36Z" fill="#dead1f" stroke-width="0"></path>
    <path d="M276.81,160.93h-3.4v2.32h3.28v1.79h-3.28v2.86h3.4v1.79h-5.46v-10.56h5.46v1.79Z" fill="#dead1f" stroke-width="0"></path>
    <path d="M284.72,165.25l2.98,4.45h-2.49l-2.56-4.26h-.03v4.26h-2.06v-10.56h2.79c1.1,0,1.96.26,2.59.78.62.52.94,1.32.94,2.4,0,.71-.19,1.35-.57,1.91-.38.56-.91.9-1.58,1.01ZM282.62,160.82v3.18h.27c.62,0,1.1-.12,1.43-.36.33-.24.5-.66.5-1.27s-.17-1.02-.5-1.23c-.33-.21-.8-.32-1.42-.32h-.28Z" fill="#dead1f" stroke-width="0"></path>
    <path d="M294.57,160.93v8.76h-2.06v-8.76h-2.13v-1.79h6.31v1.79h-2.13Z" fill="#dead1f" stroke-width="0"></path>
    <path d="M303.47,164.85l-3.28-5.71h2.39l1.85,3.67,2.02-3.67h2.41l-3.33,5.71v4.84h-2.06v-4.84Z" fill="#dead1f" stroke-width="0"></path>
    <path d="M324.44,169.7v-6.55h.12l-2.14,6.69h-.71l-2.56-6.69h.2v6.55h-1.45v-10.84s1.45,0,1.45,0l2.73,6.96,2.37-6.96h1.48v10.84s-1.48,0-1.48,0Z" fill="#dead1f" stroke-width="0"></path>
    <path d="M336.12,167.47h-3.67l-.87,2.23h-2.17l4.12-10.84h1.6l4,10.84h-2.2l-.81-2.23ZM335.55,165.79l-1.32-3.84h-.03l-1.16,3.84h2.51Z" fill="#dead1f" stroke-width="0"></path>
    <path d="M344.2,159.14v10.56h-2.06v-10.56h2.06Z" fill="#dead1f" stroke-width="0"></path>
    <path d="M348.08,169.7v-10.84h1.48l5.56,7.38h.03v-7.1h2.06v10.77h-1.48l-5.56-7.38h-.03v7.17h-2.06Z" fill="#dead1f" stroke-width="0"></path>
    <path d="M364.51,160.93v8.76h-2.06v-8.76h-2.13v-1.79h6.31v1.79h-2.13Z" fill="#dead1f" stroke-width="0"></path>
    <path d="M375.24,160.93h-3.4v2.32h3.28v1.79h-3.28v2.86h3.4v1.79h-5.46v-10.56h5.46v1.79Z" fill="#dead1f" stroke-width="0"></path>
    <path d="M378.99,169.7v-10.84h1.48l5.56,7.38h.03v-7.1h2.06v10.77h-1.48l-5.56-7.38h-.03v7.17h-2.06Z" fill="#dead1f" stroke-width="0"></path>
    <path d="M397.82,167.47h-3.67l-.87,2.23h-2.17l4.12-10.84h1.6l4,10.84h-2.2l-.81-2.23ZM397.25,165.79l-1.32-3.84h-.03l-1.16,3.84h2.51Z" fill="#dead1f" stroke-width="0"></path>
    <path d="M403.84,169.7v-10.84h1.48l5.56,7.38h.03v-7.1h2.06v10.77h-1.48l-5.56-7.38h-.03v7.17h-2.06Z" fill="#dead1f" stroke-width="0"></path>
    <path d="M423.9,159.48v2.46c-.62-.75-1.39-1.12-2.32-1.12s-1.7.36-2.26,1.09c-.56.73-.85,1.58-.85,2.55s.29,1.77.86,2.48,1.32,1.07,2.23,1.07c.43,0,.85-.1,1.27-.31.42-.21.77-.48,1.07-.81v2.45c-.89.42-1.68.63-2.39.63-1.46,0-2.68-.54-3.67-1.62-.99-1.08-1.49-2.37-1.49-3.85,0-1,.21-1.93.64-2.79.43-.86,1.05-1.55,1.85-2.07.81-.52,1.71-.78,2.71-.78.82,0,1.61.21,2.35.62Z" fill="#dead1f" stroke-width="0"></path>
    <path d="M433.1,160.93h-3.4v2.32h3.28v1.79h-3.28v2.86h3.4v1.79h-5.46v-10.56h5.46v1.79Z" fill="#dead1f" stroke-width="0"></path>
  </g>
  <g>
    <path d="M158.4,95.65v5.1h.2c2.93-4.47,5.61-5.77,10.8-5.77,1.8,0,7.06,1.59,9.13,2.39l-5.65,13.18c-1.53-1.38-3.59-4.1-5.79-4.1-1.87,0-2.35.27-3.72.93-1.37.67-1.55,1.57-2.28,2.57-.73,1-1.32,2.27-1.75,3.8-.44,1.53-.7,2.97-.8,4.3-.1,1.33-.15,2.87-.15,4.6v22.1h-14v-49.1h14Z" fill="#fff" stroke-width="0"></path>
    <path d="M201.1,95.74v4.3c3.4-4.07,7.93-6.1,13.6-6.1,6.67,0,13.07,3.62,17.2,8.85,4.13,5.23,5.2,11.25,5.2,18.05,0,7.13-2.05,13.32-6.15,18.55-4.1,5.23-9.62,7.85-16.55,7.85-2.6,0-5.1-.55-7.5-1.65-2.4-1.1-4.27-2.62-5.6-4.55h-.2v28.8h-14v-74.1h14ZM203.88,129.54c1.72,2.08,4.09,3.61,6.74,4.09,7.02,1.27,11.55-5.14,11.55-13.4,0-10.68-10.06-17.29-17.79-10.28-1.59,1.44-2.38,3.59-2.94,5.66-1,3.66-.9,7.69.69,11.13.46,1,1.06,1.95,1.77,2.81Z" fill="#fff" stroke-width="0"></path>
    <path d="M296.2,123.75h-35.3c0,3.6,1.5,5.53,3.66,7.41,2.29,1.99,4.48,2.62,7.81,2.62,2.27,0,4.97-.67,7.39-2.62,1.91-1.55,3.69-4.14,4.66-6.12l11.67,6.12c-1.67,4.87-6.73,9.38-10.73,12.05s-9.56,3.89-14.76,3.89c-7.47,0-13.42-2.38-17.85-7.15-4.43-4.77-6.65-10.95-6.65-18.55s2.05-14.18,6.15-19.15c4.1-4.97,10.98-8.45,18.65-8.45s15.47,3.48,19.4,8.45c3.93,4.97,5.9,11.38,5.9,19.25v2.25ZM262.28,112.75s.04.07.04.07h18.42c0-2.65-3.14-4.95-5.36-5.82-2.78-1.08-6.49-.81-9.07.7-.91.53-1.65,1.39-2.33,2.19-.51.6-.99,1.23-1.35,1.93-.1.19-.42.73-.35.93Z" fill="#fff" stroke-width="0"></path>
    <path d="M319.7,95.74v3.15h.2c3.34-3.38,8.93-5.15,14.8-5.1,4.92.04,8.26,1.38,11.06,3.06s5.07,3.69,5.94,7.69c.61,2.8.28,6.99.3,10.94v29.21s-13.9,0-13.9,0v-18.2c0-4.85.16-9.59-.76-14.37-.23-1.19-.66-2.39-1.54-3.22-1.17-1.1-3.06-1.51-4.61-1.73-1.9-.27-3.84-.05-5.64.6-2.39.86-4.57,2.58-5.16,5.16-1.17,5.06-.69,10.47-.69,15.62v12.88c0,.17,0,3.26,0,3.26h-14.64v-48.96h14.64Z" fill="#fff" stroke-width="0"></path>
    <path d="M456.9,138l-16.9-42.6h15.9l8.7,27.9,12.6-27.9h15.6l-35.7,74.3h-15.4l15.2-31.7Z" fill="#fff" stroke-width="0"></path>
    <path d="M91.05,23.8c.22-11.63,8.39-20.04,21.74-22.66,1.59-.31,3.18-.87,4.78-1h18.23s.57,2.2.76,3.17c.6,3.08,2.65,3.85,5.44,3.98,2.73.13,3.56-1.02,4.12-3.66.26-1.2.72-3.49,1.71-3.49h9.02l.07,23.67h-3.27c-2.78-.01-6.76,1.11-7.51-2.71-.62-3.16.1-3.95-4.05-3.95-1.59,0-4.81.19-5.38,2.92,0,0,.16,4.68-.03,5.93h-1.88l.33,53.92h-15.66l-.08-53.92h-2.61s0-5.93,0-5.93c0,0-1.5-2.06-2.15-2.9-3.32-4.25-6.22-4.92-10.75-3.23-4.99,1.86-8.45,5.66-12.82,9.87Z" fill="#fff" stroke-width="0"></path>
    <g>
      <path d="M38.35,151.35c.58-.96,1.73-1.83.92-3.1-.86-1.35-2.05-.6-3.1-.19-3.31,1.28-6.62,2.44-10.23.07-.1-1.72,3.5-1.95,2.23-3.99-1.02-1.65-3.07-.83-4.6-.66-3.17.35-5.7-.83-8.14-2.4.32-2.17,4.17-1.28,3.14-3.92-.69-1.76-2.86-1.52-4.41-1.65-3.17-.27-4.95-2.44-7.06-4.46.93-1.77,4.09-.12,4.18-2.39.09-2.29-2.5-2.3-3.95-3.21-1.41-.88-2.98-1.48-3.75-3.12-.71-1.51-3.27-3.19,1.25-3.34,3.13-.11,1.68-2.4.18-3.6-2.81-2.24-4.89-4.83-5.03-8.61,1.57-1.25,3.58,2.29,4.77-.25.81-1.7-.93-3.05-1.86-4.31-1.72-2.34-1.88-4.87-1.52-7.6,1.8-1.25,3.05,2.77,4.68.57,1.18-1.58-.18-3.27-.78-4.67-1.25-2.92-.34-5.51.49-8.17,2.01-.18,2.02,3.78,4.29,2.28,1.51-.99.7-3.12.56-4.71-.26-2.88.78-5.14,2.76-7.21,1.65.4,1.09,3.51,3.36,2.84,1.85-.55,1.53-2.4,1.72-3.79.42-3,1.98-5.21,4.38-7.02,1.79.67.26,4.11,2.86,3.77,1.86-.25,2.15-2.38,2.84-3.81,1.17-2.43,3.02-3.89,5.6-4.61,1.38,1.07-.52,3.71,1.7,4.12,1.66.31,2.58-1.4,3.4-2.56,1.8-2.54,4.45-3.27,7.22-4.03,1.31,1.53-1.34,3.11.48,4.82,3.23-2.84,6.39-6.44,11.61-4.53.48,1.55-2.7,2.58-1.1,4.21,1.39,1.41,3.16.24,4.62-.44,2.95-1.38,5.78-.93,8.61.27.24,1.93-3.55,2.17-2.1,4.38,1.08,1.65,3.09.73,4.66.5,2.5-.37,2.2,1.28,2.2,2.75.01,6.65,0,13.29,0,20.04-2.34.07-3.3-1.76-4.64-2.8-4.85-3.75-10.25-6.1-16.31-7-13.76-2.05-25.49,5.93-28.26,19.25-3.02,14.49,3.99,27.6,16.84,30.76,9.85,2.43,18.75-.26,26.72-6.32,1.67-1.27,3.29-2.6,5.64-4.46,0,8.41,0,15.98,0,23.56,0,1.23-.3,2.53-1.61,2.68-1.46.17-.94-1.38-1.32-2.18-1.32-2.8-2.27-1.27-3.32.27q-3.82,5.6-7.13,6.9c-1.21-1.06.9-3.17-1.07-3.87-1.88-.66-2.66,1.09-3.5,2.18-1.96,2.53-4.55,3.63-7.6,4.04-.91-1.62,1.74-3.14-.36-4.93-1.84,1.71-3.41,4.02-6.06,4.78-1.85.25-3.94,1.63-5.13-1.12Z" fill="#fff" stroke-width="0"></path>
      <path d="M50.05,96.61c4.6.16,8.51,4.34,8.31,8.9-.2,4.6-3.94,8.16-8.45,8.07-4.68-.1-8.58-4.2-8.34-8.77.23-4.48,4.23-8.34,8.48-8.2Z" fill="#fff" stroke-width="0"></path>
    </g>
    <path d="M152.66,35.45c4.8-4.9,11-7.35,18.6-7.35s13.8,2.45,18.6,7.35,8.2,11.18,8.2,18.85-3.38,13.93-8.15,18.8c-4.77,4.87-10.98,8.3-18.65,8.3s-13.88-3.43-18.65-8.3c-4.77-4.87-8.15-11.13-8.15-18.8s3.4-13.95,8.2-18.85ZM179.66,45.7c-2.13-2.8-4.93-4.2-8.4-4.2s-6.27,1.4-8.4,4.2c-2.13,2.8-3.2,6-3.2,9.6s1.08,5.7,3.25,8.5c2.17,2.8,4.95,4.2,8.35,4.2s6.18-1.4,8.35-4.2c2.17-2.8,3.25-4.97,3.25-8.5s-1.07-6.8-3.2-9.6Z" fill="#fff" stroke-width="0"></path>
    <path d="M213.36,27.79,213.36,43.92,227.36,42.5h8.6v-12.8h-30.4v12.8h21.8ZM213.36,43.92v35.88h14v-35.88h-14ZM213.36,27.79v-15.69h14v15.69h-14Z" fill="#fff" stroke-width="0"></path>
    <path d="M369.38,77.04v15.69h14s0-15.69,0-15.69h-14ZM361.58,94.64v12.8h30.4v-12.8h-30.4ZM383.38,109.36v35.38h-14v-35.38h14Z" fill="#fff" stroke-width="0"></path>
    <path d="M295.46,29.7v50.1h-14.8v-3.5h-.2c-3.13,4.07-7.57,5.1-13.3,5.1-6.87,0-12.35-2.63-16.45-7.9-4.1-5.27-6.15-11.43-6.15-18.5s2.05-13.98,6.15-19.15c4.1-5.17,9.52-7.75,16.25-7.75,5.6,0,10.17,1.07,13.7,5.2v-3.6h14.8ZM262.01,63.75c2.17,2.83,4.95,4.25,8.35,4.25s6.2-1.42,8.4-4.25c2.2-2.83,2.3-5.02,2.3-8.55s-.1-6.7-2.3-9.5c-2.2-2.8-5-4.2-8.4-4.2s-6.18,1.4-8.35,4.2c-2.17,2.8-2.25,5.97-2.25,9.5s.08,5.72,2.25,8.55Z" fill="#fff" stroke-width="0"></path>
    <path d="M136.04,95.17v50.1h-14.8v-3.5h-.2c-3.13,4.07-7.57,5.1-13.3,5.1-6.87,0-12.35-2.63-16.45-7.9-4.1-5.27-6.15-11.43-6.15-18.5s2.05-13.98,6.15-19.15c4.1-5.17,9.52-7.75,16.25-7.75,5.6,0,10.17,1.07,13.7,5.2v-3.6h14.8ZM102.59,129.22c2.17,2.83,4.95,4.25,8.35,4.25s6.2-1.42,8.4-4.25c2.2-2.83,2.3-5.02,2.3-8.55s-.1-6.7-2.3-9.5c-2.2-2.8-5-4.2-8.4-4.2s-6.18,1.4-8.35,4.2c-2.17,2.8-2.25,5.97-2.25,9.5s.08,5.72,2.25,8.55Z" fill="#fff" stroke-width="0"></path>
    <path d="M318.56,0v79.8h-14V0h14Z" fill="#fff" stroke-width="0"></path>
    <path d="M414.42,95.65v5.1h.2c2.93-4.47,5.61-5.77,10.8-5.77,1.8,0,7.06,1.59,9.13,2.39l-5.65,13.18c-1.53-1.38-3.59-4.1-5.79-4.1-1.87,0-2.35.27-3.72.93-1.37.67-1.55,1.57-2.28,2.57-.73,1-1.32,2.27-1.75,3.8-.44,1.53-.7,2.97-.8,4.3-.1,1.33-.15,2.87-.15,4.6v22.1h-14v-49.1h14Z" fill="#fff" stroke-width="0"></path>
  </g>
</svg>
