<?xml version="1.0" encoding="UTF-8"?>
<svg xmlns="http://www.w3.org/2000/svg" id="Layer_1" data-name="Layer 1" viewBox="0 0 500.21 310.32">
  <path d="M395.15,77.64c-.08.93-3.68,0-5.69.62,3.06,3.63,5.75,7.03,8.13,10.86-3.51-.4-8.39-3.57-13.58-2.89-.62.19.51,3.96,1.19,6.77,1.02,3.97-3.51-1.25-5.21-2.3-6.75-4.42-20.58-6.71-19.7-19.1-3.66-2.27-7.46-4.51-11.37-6.66-10.4,5.38-20.35,12.84-21.4,24.72-1.45,14.42,11.85,29.25,31.49,25.31,6.66-1.28,12.13-5.47,18.09-8.56,6.09-3.26,13.18-5.67,20.01-6.35,5.87-.65,21.03.88,20.89-5.08-.06-6.2-8.3-1.98-12.75-1.98,3.09-1.76,4.08-5.73,5.47-9.35-2.92-.91-4.96-.26-7.46.34,1.79-4.17,3.74-8.71,6.04-12.39-2.44-.34-5.59.17-8.28,1.1,2.35-4.87,4.88-10,8.28-13.77h-7.37c4.36-4.28,6.35-11.45,14.51-12.05-.79-3.26-6.26-1.02-9.1-3.97,5.47-1.98,9.61-5.55,17.35-5.33-.48-1.07-3.71-5.1-5.3-7.34,4.03.4,13.78.94,18.2,3.32,3.63-3.69,10.15-4.88,17.4-3.32-1.58,1.84-4.42,2.33-5.38,4.62,6.46,5.36,16.18,7.51,24.18,11.4,0,6.29-4.23,9.32-8.05,13.38-1.51-3.6-6.83-2.89-10.8-3.86-.94.4-1,1.82-1.11,3.01,7.09.22,12.59,3.71,18.57,2.18,5.55-1.5,5.33-9.3,11.42-9.44-3.46,2.83-1.73,10.83-6.01,12.73-10,1.47-15.7-3.89-23.27-2.61.6,4.05,6.38,4.73,9.5,2.44.34,2.29,3.17,1.05,3.62,2.83.85,3.29-3.48,6.78-5.35,8.36-.26-4.76-7.86-6.01-10.09-3.68-5.67,5.92,11.76,8.28,16.15,14.74-1.36,0-3.4.23-4.82.23.03,2.89,4.26,1.95,6.21,1.75,3.91-.56,8.36-5.81,9.38-10.68.85-4.09-2.66-9.95,3.55-11.34,3.88-.26,4.16-3.04,7.17-4.06,3.12-1.67-1.45,2.05-.37,4.26.31,0,.51-.06.77-.06,2.04,0,4.11,1.08,5.21,2.83,1.45-.85,4.34.68,4.74,3.29-1.9-.51-3.29-.85-4,.29-1.08,2.09-.94,3.94,0,5.01.59.6,1.25,3.8,1.25,5.98-4.48-4.67-9.05,5.42-12.79,7.86.8,1.64,2.89,2.04,4.74,2.58-1.25,2.29-4.74,2.04-7.26,2.94.14,1.99,5.1,2.84,2.64,3.29-2.9.43-6.07,2.07-8.76.82-2.04.51,2.69,3.04.73,3.35-6.26,1.3-17.49-2.64-17.15,1.33.74,6.07,7.6,2.44,11.4,1.65,9.24-1.88,24.55-6.16,28.23,8.24-5.92-5.27-3.43,5.13-6.8,7.77-1.76,1.19,0-3.12-1.13-3.57-4.85-1.64-4.6,3.97-7.63,5.07-2.58-14.48-14.71-.19-20.83,2.44-.32-1.64-.34-1.7-.51-3.88-3.04.99-4.85,3.88-7.26,5.47-1.25-1.25-.88-3.69-1.45-5.47-3.26,1.84-6.01,4.22-9.38,5.92-.65-1.36-.2-3.14-1.39-5.27-4.59-3.4-14.68-1.36-22.19-1.79.31,4.06,8.61,2.27,12.44,3.43,4.28,1.48,9.81,6.41,7.99,13.78-2.43,9.24-27.78,9.69-14.51,18.23,2.95.11,7.57-3.97,15.82-1.99,2.52.57-.51,1.7-1.11,2.78,1.39,2.84,5.39,2.89,7.03,5.58-1.36.8-5.27-.34-4.99,3.29-9.15-.59-28.49-.05-28.68-.31-1.05-1.93-2.3-4.51-3.38-7.11-1.98-.34-6.52,1.36-8.1.76-2.56-.76,4.36-5.87,4.81-7.96-.59-1.65-3.37-1.25-5.32-1.45,2.38-4.48,11.65-6.75,10.74-9.84-1.05-4.47-6.92-4.62-11.03-6.18,2.04,10.66-15.67,10.15-19.64,18.32-.17-1.99-.85-3.6-1.65-4.82-2.15,1.59-5.18,3.06-6.32,5.7-1.1-.8.14-3.77-2.38-3.77-5.19.05-10.6,5.01-9.81,6.37,1.96,2.87,6.27-2.55,8.25-2.01,1.56.51,1.65,1.76,3.4,2.16,1.79.48,3.63-.06,4.82.85-.11.79-1.24,1.53-2.09,1.64.79,3.06,4.93,1.79,6.23,4.36-2.04,0-3.68,1.34-5.19,3.29-5.52-.25-28.74.4-29.73-.37-1.65-1.13-2.35-2.21-2.69-3.62-1.39-4.82,3.74-5.47,5.52-8.93-1.1-1.56-4.36-1.7-6.57-2.16,2.29-3.57,8.87-3.77,12.44-6.26-1.3-1.25-2.75-2.13-5.38-1.99,3.28-6.18,10.85-4.16,15.87-7.65,5.78-4.02,5.07-11.08,8.25-18.31-13.58,4-24.66,11.25-40.93,11.25-18.23,0-30.82-10.4-32.91-25.31-3.29-24.83,15.3-38.69,33.53-46.74-8.62-9.36-17.63-17.01-16.02-32.04,3.46-33.33,70.76-35.26,70.5,1.28-.08,17.52-16.3,24.32-28.69,31.38,2.05,1.7,5.59,4.28,6.52,4.68,1.05.51,3.83-.49,6.13-.15,10.23,1.2,14.11,9.61,21.31,14.89ZM369.1,27.6c1.65-12.89-7.71-18.65-18.25-16.72-17.8,3.35-12.47,30.73-.6,37.96,8.05-3.75,17.52-11.09,18.85-21.24ZM457.57,42.52c-4.22,0-8.59-.12-9.29,3.37,2.89-.03,3.82,1.78,7.2,1.3-1.48-2.63.56-3.37,2.09-4.67ZM470.36,49.43c-1.7-.34-2.24-3.57-3.97-2.04-.37,2.13,2.86,3.77,3.97,2.04Z" fill="#ed1c24" stroke-width="0"></path>
  <g>
    <path d="M101.34,25.76l-13.97,13.01-1.28-1.58c-3.82-4.48-7.91-8.99-13.09-11.82-4.51-2.36-9.7-3.04-14.66-3.04-8.96-.17-18.2,3.72-23.38,11.37-6.72,9.95-8.11,22.45-8.14,34.19.03,11.56,1.39,23.75,7.85,33.56,4.76,7.25,13.47,11.14,22.14,11,5.02.02,10.04-1,14.6-3.35,5.47-2.89,10.09-7.2,14.37-11.68l1.5-1.56,12.84,13.78-1.1,1.45c-5.33,6.66-11.74,12.58-19.5,16.27-7.71,3.74-16.3,5.01-24.86,5.01-14.18.26-29.09-5.21-37.79-16.89-10.29-13.64-12.84-31.3-12.9-47.91.06-16.69,3.23-34.41,14.03-47.53C27.7,8.16,43.37,2.69,58.34,2.94c8.05,0,16.3,1.08,23.53,4.71,7.51,3.88,13.46,10.06,18.45,16.72l1.02,1.39Z" fill="#fff" stroke-width="0"></path>
    <path d="M136.52,21.96h-21.74V.14h21.74v21.82Z" fill="#fff" stroke-width="0"></path>
    <path d="M210.76,121.57c-6.86,6.07-15.76,10.12-24.97,9.75-6.55,0-13.52-1.47-18.14-6.26-4.88-4.88-6.13-12.02-6.13-18.6v-56.09h-12.13v-17.27h12.33l.96-23.86,20.13-4.11-.28,27.97h25.2v17.27h-25.26v49.49c0,2.83.06,5.73.68,8.36.77,3.04,3.74,5.1,6.92,5.05,4.99,0,9.1-3.32,13.12-5.9l1.84-1.36,6.86,14.63-1.13.93Z" fill="#fff" stroke-width="0"></path>
    <path d="M301.19,33.1l-31.75,82.46c-.74,2.19-1.65,4.4-2.47,6.47-1.1,2.75-2.21,5.52-3.29,8.22-2.55,6.4-5.07,12.58-7.85,18.85l-8.36,18.59h-22.73l1.04-2.24c.46-.9,1-1.84,1.51-2.77,2.01-4.06,4.02-8.08,5.89-12.19,2.16-4.79,4.4-9.61,6.72-14.37,1.64-3.69,3.29-7.37,4.73-11.2l.06-.12-34.58-91.7h22.93l19.76,56.81c.14.68.39,1.33.68,2.04.34,1.05.71,2.24,1.05,3.32.39,1.19.68,2.29,1.1,3.43l.03-.23c.91-2.89,1.76-5.78,3.01-8.56l20.43-56.81h22.09Z" fill="#fff" stroke-width="0"></path>
    <path d="M205.88,308.04h-20.92l-.19-1.82c-.26-3.85-.37-7.74-.46-11.62v-.51c-7.76,9.47-18.71,16.67-31.29,16.21-7.6.12-15.51-2.26-20.72-7.99-5.64-5.98-7.49-14.37-7.43-22.34v-68.51h21.09v64.43c.06,4.03.45,8.36,2.95,11.79,1.78,2.58,4.96,3.69,7.99,3.58,1.65,0,3.35-.2,4.88-.74,9.83-3.72,15.87-13.18,21.57-21.54v-57.52h21.26l-.17,76.56c.06,6.04.45,11.91,1.19,17.78l.25,2.24Z" fill="#fff" stroke-width="0"></path>
    <path d="M244.69,200.35h-21.94v-20.92h21.94v20.92Z" fill="#fff" stroke-width="0"></path>
    <path d="M284.26,308.04h-20.78v-128.61h20.78v128.61Z" fill="#fff" stroke-width="0"></path>
    <path d="M391.33,308.04h-21.29l-.34-1.76c-.54-4.22-.91-8.45-1.05-12.67-3.51,4.28-7.46,8.19-12.42,11.08-5.92,3.54-12.95,4.99-19.81,4.93-9.72.15-19.59-3.48-25.85-10.65-7.37-8.25-10.23-19.28-11.28-29.88-.26-2.95-.32-5.93-.32-8.9,0-13.07,2.36-26.96,11.06-37.59,7.26-9.21,19.59-13.95,31.58-13.78,6.06,0,12.41,1.02,17.88,3.66,3.15,1.56,5.99,3.66,8.42,6.04-.11-1.7-.14-3.4-.14-5.13v-33.96h22.11v109.25c0,.79.06,1.64.06,2.38.05,1.3.14,2.69.2,4.02.14,3.4.45,6.78.99,10.21l.2,2.75ZM345.58,290.38c10.65-3.94,17.2-13.64,22.47-22.74.34-2.44.51-4.93.46-7.45,0-5.39-.4-10.86-1.99-16.07-2.55-9.39-11.33-17.75-21.99-17.75-6.41-.14-12.93,3.03-16.3,8.31-4.93,7.37-5.93,16.47-6.01,25.05.14,8.22.42,16.81,4.62,24.18,2.44,4.62,7.71,7.54,13.12,7.35,1.93,0,3.75-.29,5.62-.88Z" fill="#fff" stroke-width="0"></path>
    <path d="M477.47,217.72l-6.83,17.69-2.01-1.13c-6.83-4.37-14.83-7.77-23.1-7.51-4.23.05-8.59.73-12.08,3.34-2.69,2.13-3.97,5.67-3.91,8.93-.12,2.75,1.13,5.73,3.71,7.03,1.5.79,3.18,1.39,4.99,1.48h.2l.08.05c2.39.54,4.82.71,7.26.94,8.31,1.1,17.07,3.09,23.47,8.81,5.59,4.96,7.71,12.79,7.63,20.13.14,8.9-3.15,18.23-10.09,24.12-7.49,6.46-17.58,8.62-27.27,8.62-11.74.2-23.42-3.15-33.42-9.36l-1.48-.93,7.6-17.07,1.9,1.31c7.45,4.76,15.9,8.64,24.86,8.53,4.28,0,8.9-.88,12.33-3.63,2.78-2.12,4.28-5.67,4.22-9.18.06-3.01-.65-6.18-2.92-8.22-3.09-2.52-7.17-3.29-11-3.77-3.88-.46-7.71-.91-11.59-1.5-3.77-.66-7.37-2.19-10.49-4.11-7.59-4.46-11.05-13.5-10.88-21.94-.17-8.71,3.23-17.66,9.89-23.28,7.26-6.21,17.09-8.5,26.5-8.5,10.8-.06,21.75,2.69,30.93,8.3l1.5.85Z" fill="#fff" stroke-width="0"></path>
    <path d="M135.93,129.74h-20.61V33.1h20.61v96.64Z" fill="#fff" stroke-width="0"></path>
    <path d="M243.98,308.04h-20.58v-96.58h20.58v96.58Z" fill="#fff" stroke-width="0"></path>
    <path d="M105.59,203.44l-14.34,13.18-1.33-1.45c-4.37-4.7-8.9-9.38-14.63-12.19-4.96-2.46-10.54-3.03-16.01-3.03-9.75-.14-20.04,3.35-26.17,11.4-7.28,9.44-8.93,21.94-9.04,33.67.11,12.19,1.56,25.32,9.04,35.35,6.07,8.22,16.61,11.65,26.56,11.45,3.89,0,7.83-.11,11.6-1.1,3.68-.94,7.17-2.72,10.49-4.54v-37.47h21.99v49.01l-1.05.62c-13.83,7.46-29.19,12.36-45.01,11.96-15.68.26-32.29-4.81-42.78-17C3.43,280.29,0,262.31,0,245.36c-.05-16.89,3.89-34.75,15.42-47.59,10.69-12.02,27.25-17.29,43.06-17.21,8.85,0,17.95,1.25,26.03,5.08,7.93,3.57,14.51,9.55,19.92,16.32l1.16,1.48Z" fill="#fff" stroke-width="0"></path>
  </g>
</svg>
