<?xml version="1.0" encoding="UTF-8"?>
<svg id="Layer_1" data-name="Layer 1" xmlns="http://www.w3.org/2000/svg" viewBox="0 0 230 140">
  <path d="M0,140h230V0H0v140Z" fill="#c22026" fill-rule="evenodd" stroke-width="0"/>
  <path d="M120.82,49.3c-.5-1.18-.81-1.89-.81-1.89l.54-.24c-.24-.57-.52-1.12-.85-1.65-.65-1.07-1.18-1.81-1.18-1.81-.47-.03-.92-.2-1.28-.49-.21-.21-.36-.47-.43-.75.56.57,1.35.83,2.14.72,1.97-.1,2.93-1.73,1.87-3.37-.58-.9-1.35-1.01-1.39-1.56s.42-.59.8-.62c.39-.03.51,0,1.17,0,.2-.06.31-.28.24-.47-.02-.05-.04-.09-.07-.13-.36-.51-.81-.94-1.33-1.28l-.71-.5c-.11-.13,0-.2.41-.42.41-.22.83-.53.76-.71-.08-.18-.55-.14-.62-.35-.07-.21.56-1.07.36-1.36-.19-.29-.95,0-1.27.18-.32.18-.26-.28-.52-.84-.27-.56-.63-1.19-1.07-.97s-.11,1.1-.34,1.15c-.24.04-1.32-1.49-2.49-1.87-1.18-.38-.92.63-.88,1.07.04.44,0,.75-.41.6-.41-.15-1.57-1.1-2.31-.69s-.45,1.61.46,2.35c.91.74,1.21.91,1.47.86.14-.05.28-.11.41-.18l-.42-.3c-.55-.38-1.04-.85-1.44-1.38-.09-.13.16-.17.75.26l1.66,1.22c.62-.17,1.27-.22,1.92-.15.29.03.58.11.86.23l-.05.11c-1.03-.09-2.06.21-2.88.86-.88,1.2-1.66,2.48-2.3,3.82-.5,1.34-.89,2.72-1.17,4.12-.17,1.52-.5,3.01-1,4.46-.8,1.26-1.81,2.37-2.99,3.29-1.64.96-3.4,1.69-5.23,2.19.21-.1.27-5.16-3.52-8.32-3.17-2.82-7.81-3.27-11.46-1.1-1.92,1.12-3.13,3.14-3.21,5.36,0,0,1.16-.86,1.88-1.43,2.25-1.76,5.49-1.65,3.92-1.29-1.48.34-2.78,1.2-3.66,2.43-.15.28-.05.31-.05.31.39.17.81.26,1.23.26-.57.35-1.12.73-1.65,1.14-.25.25-.36.34-.28.6.2.63,1.26.87,1.26.87-.48.35-.89.8-1.2,1.31-.11.22-.11.47,0,.69.16.28,1.07.26,1.07.26,0,0-.83,1.02-.63,1.77.02.17.12.31.28.38.62.03,1.25-.03,1.85-.18-.31.31-.51.71-.57,1.15-.02.06-.02.12,0,.18l.08.11c.41.33,1.82-.21,2.45-.56h.07c-.44,1.66.42,4.29.68,4.02.23-.26.48-.51.75-.73.19.66.48,1.28.86,1.85,0,0,.63-.54.71-.18.19.59.62,1.07,1.18,1.34l.05-.05v-.6c.04-.25.1-.49.2-.72.54,1.46,1.58,2.67,2.94,3.42.13-.11.77-1.07,1.17-.83,0,0,1.32.71,2.31,1.38l1.8,2.14c.82,1.28,1.39,2.7,1.68,4.19.13.6.3,1.62.43,2.49v.16l.12,1.14s.01.09,0,.14c-.46.3-.95.57-1.44.8-.26.16-.31,1.07-.31,1.07,0,0,1.07-.46,2.05-.77.57.08,1.13.22,1.68.41.65.29,1.36.45,2.08.46,1.02,0,1.07-.26,1.36-.18.29.07.47.24.56.24.22-.33.12-.78-.21-1-.05-.03-.1-.06-.16-.08-.62-.2-.98.05-1.63-.07-.53-.16-1.04-.38-1.51-.67-.45-.32-.78-.78-.92-1.32-.11-.84-.22-3.29-.19-3.46l.15-.64c0-.12.15-.6.15-.6,0,0,1.32-1.38,1.84-1.98l.5-.54c6.32-2.62,8.56-5.36,8.56-5.36l.5.42c2.14-1.85,3.53-4.42,3.93-7.22.11-.96.1-1.93-.02-2.88l.74-.31c-.18-.99-.45-1.96-.8-2.91h0ZM118.66,36.21c.19-.38.48-.51.65-.43.54.24,1.02.65,1.39,1.17v.08c-.61-.1-1.23-.1-1.84,0-.38.02-.55-.28-.23-.83,0,0,.03.01.03.01ZM118.15,35.63c-.65-.38-1.44-.47-2.16-.26h-.07c.29-.34.73-.51,1.18-.46.46.05.85.32,1.03.71h.03ZM114.75,37.09s.07-.07.12-.06c.05,0,.08.04.08.09.05.56.39,1.06.9,1.31.04.02.06.07.05.11-.01.04-.05.07-.09.08h-.07c-.29,0-.57-.11-.79-.29-.54-.37-.26-1.1-.2-1.24ZM116.14,45.42c-.13.85-.23.87-.29.88-.04,0-.08-.03-.1-.07l-.15-.21c-.11-.11-.19-.24-.25-.39-.01-.21.02-.43.08-.63,0-.05,0-.09,0-.14,0-.07.04-.13.1-.16.07-.02.15,0,.2.07.14.18.27.36.39.56.02.02.02.05.02.08h0ZM113.89,41.07s0-.07,0-.11c0,0,.05-.09.09-.09h.16s.05,0,.08,0c0,0,.37.55.33.66l-.07.19c-.04.15-.1.29-.17.42-.02,0-.05,0-.07,0h-.11s-.05,0-.08,0l-.07-.1c-.11-.14-.19-.29-.24-.45,0-.18.05-.35.12-.51h.01ZM113.7,47.18c0,.39.05.77.15,1.15.08.23.18.45.3.67h.08c.13-.3.21-.61.24-.93,0-.38-.03-.75-.1-1.12.43.42.64.99.57,1.56-.05.54-.38,1.04-.89,1.32-.11,0-.29-.22-.48-.49-.33-.7-.28-1.52.14-2.16v.02h-.01ZM111.43,44.29s.06-.06.1-.06c.06,0,.11.05.11.11,0,.36.05.72.13,1.08.04.16.1.31.18.45.08-.22.12-.45.13-.68.01-.34-.01-.69-.08-1.02-.02-.03-.02-.07,0-.1.03,0,.06,0,.09,0,.03,0,.06,0,.09,0,.4.41.59.98.52,1.54-.15.85-.67,1.33-.87,1.33-.18,0-.39-.33-.5-.51-.32-.68-.28-1.48.1-2.13ZM104.3,54.62c.6-.26,1.2-.48,1.82-.67v.05c-.8.62-1.9,1.56-1.4,1.91.29.21,3.5-.65,5.85-2.11,1.53-.92,2.99-1.93,4.39-3.03v.32c-1.66,2.27-3.94,4-6.57,5-3.5,1.51-5.39,1.06-5.71.83-.46-.42-.05-1.5,1.63-2.3ZM85.24,45.73c.57-.51,1.25-.89,1.98-1.11,2.67-.94,5.62-.7,8.11.66,3.58,1.92,4.29,4.42,4.29,4.84-.12-.17-2.14-2.11-2.23-2.18-1.83-1.71-4.18-2.75-6.67-2.97-3.38-.37-4.97.36-5.48.76h0ZM93.99,47.09c1.82.53,3.37,1.73,4.35,3.36h-.06c-1.61-1.18-3.47-1.97-5.43-2.31-1.87-.41-3.79-.5-5.69-.28.49-.37,2.81-2.05,6.84-.77h0ZM86.52,53.32c.14-1.28.71-2.48,1.62-3.39,1.16-.94,3.86-.99,6.68-.29-1.74.04-3.46.39-5.07,1.04-1.34.5-2.48,1.43-3.24,2.64ZM92.59,52.36c-1.78.62-3.26,1.87-4.16,3.52,0-.67.31-4.18,4.91-5.31,1.59-.3,3.24-.05,4.67.73-1.86-.04-3.71.32-5.42,1.06ZM93.77,60.35h-.06c-1.47-2.31-.68-5.99.49-6.71-.32.66-.5,1.38-.51,2.11.62-.75,1.3-1.46,2.02-2.11l.07.06c-.69,1.15-2.18,4.19-2.01,6.65ZM95.96,63.23h-.08c-1.21-3.88.47-7.83,1.55-8.56,0,0,0,.47-.13,1.24l2.85-1.94.11.14c-1.2,1.39-4.18,5.54-4.29,9.12,0,0-.01,0,0,0ZM102.74,58.44c.35-.13.71-.24,1.07-.34,0,0-1.14,1.61-.51,1.81.41.15,4.19-.72,7.04-2.32,1.84-1.08,3.59-2.29,5.26-3.63v.31c-.46.75-2.61,3.73-7.91,5.84-4.29,1.69-6.44,1.19-6.85.9-.63-.49-.17-1.76,1.91-2.57,0,0-.01,0-.01,0ZM109.2,63.73c-4.48,2.17-7.35,1.81-7.8,1.51-.78-.55.99-2.45,2.84-3.12l.07.1c-.94.86-.93,1.52-.47,1.57,2.96-.47,5.77-1.57,8.25-3.25,1.68-1.21,3.16-2.67,4.39-4.33l.07.28c-.29,1.27-1.66,4.52-7.34,7.25h-.01ZM116.24,35.87c.14-.06.19,0,.41,0s.81.07.85.16c.05.1-.14.39-.37.5-.19.12-.43.12-.62,0-.2-.15-.3-.41-.26-.66h0ZM117.32,39.27c.06.73.34,1.43.81,2.02.54.52,1.2.9,1.94,1.1v.06c-.88.09-1.77-.13-2.52-.61-.76-.64-.9-1.76-.32-2.57h.09ZM115.69,65.15l.58.59c-.18.38-2.84,3.4-3.13,3.69-.17.17-.28.4-.29.64v.56l.04.09c.04.12.04.25.04.39l.15.52.06.18c.04.12.08.25.12.37l.22.51.06.16c.05.11.1.22.14.33l.24.56.23.44.22.42.1.17c.07.11.15.21.24.32l.22.35.17.21c.7.46,1.51.78,2.37.93.65.17,1.1-.12,1.79.07.19.07.35.21.43.4.08.18.07.38-.01.55-.09,0-.27-.16-.61-.23-.34-.07-.34.12-1.48.17-.89,0-1.77-.16-2.61-.44h-.19c-.64.22-2.49.82-2.49.82.01-.3.08-.59.22-.87.17-.18.57-.29.79-.59.1-.18.1-.4,0-.57-.05-.14-.12-.28-.19-.41l-.58-.93-.26-.48c-.46-.8-.96-1.58-1.52-2.32-.67-.65-1.39-1.24-2.16-1.76l.03-.06c.12-.26.56-1.25.61-1.25,2.15-.9,4.21-1.99,6.15-3.26l.34-.27h0ZM118.19,48.21s.08.02.1.05c.53,1.04.63,2.24.3,3.35h.08c-.17.7-.6,1.31-1.22,1.7-.05.01-.11.01-.17,0h-.07c-.42-.19-.38-.93-.31-1.67.09-.6.24-1.19.46-1.75,0-.02.02-.04.05-.06h.04s.06-.02.08,0c.02.03.02.06,0,.08,0,.15-.07.94-.07,1.41,0,.26.02.53.05.79.31-.53.49-1.12.53-1.73.06-.69.06-1.38,0-2.06,0-.05.03-.11.08-.12,0,0,.06,0,.06,0Z" fill="#fff" stroke-width="0"/>
  <path d="M100.65,92.31l-.13,8.35h-.22l-3.03-21.45h-7.52l-3.03,21.45h-.22l-.17-8.35-1.51-13.1h-7.26l4.15,30.27h8.86l2.38-12.28.48-8.78h.22l.48,8.78,2.33,12.28h8.86l4.15-30.27h-7.26l-1.56,13.1M41.89,89.76h-4.93l-1.47-10.55h-6.49v30.27h6.49l1.43-11.42h5.02l1.43,11.42h6.44v-30.27h-6.44l-1.47,10.55M194.63,92.32l-3.33-2.33c-1.64-1.17-2.38-1.82-2.38-3.16,0-1.21,1.17-1.99,3.03-1.99,1.99,0,3.98.35,6.49,1.08v-6.49c-2.34-.61-4.32-.82-6.7-.82-6.62,0-10.68,3.11-10.68,8.65,0,3.42,1.9,6.4,5.4,8.82l3.85,2.77c1.17.82,1.69,1.51,1.69,2.46,0,1.21-1.3,2.08-3.33,2.08-2.34,0-4.54-.48-7.26-1.64v7.09c2.51.78,5.02,1.08,7.35,1.08,6.96,0,11.37-3.33,11.37-8.91,0-3.29-1.9-6.18-5.49-8.69M64.42,102.82c-2.55,0-3.63-2.55-3.63-8.48s1.08-8.47,3.63-8.47,3.63,2.55,3.63,8.47-1.08,8.48-3.63,8.48ZM64.42,78.69c-7.78,0-11.37,4.93-11.37,15.65s3.59,15.65,11.37,15.65,11.42-4.93,11.42-15.65-3.59-15.65-11.42-15.65h0ZM136.54,109.48h18.16v-6.79h-10.59v-5.92l8.13.78v-7.39l-8.13.82v-5.01h10.59v-6.75h-18.16v30.27M121.06,102.3h-1.25v-15.91h1.25c3.68,0,4.54,2.51,4.54,7.96s-.86,7.96-4.54,7.96h0ZM121.06,79.21h-8.95v30.27h8.95c8.61,0,12.32-4.93,12.32-15.14s-3.72-15.13-12.32-15.13ZM171.48,91.23l.69,5.97h-.22l-6.53-17.99h-7.78v30.27h6.79v-12.02l-.69-5.97h.22l6.53,17.99h7.78v-30.27h-6.79v12.02" fill="#fff" fill-rule="evenodd" stroke-width="0"/>
</svg>