<?xml version="1.0" encoding="UTF-8"?>
<svg xmlns="http://www.w3.org/2000/svg" id="Layer_1" data-name="Layer 1" viewBox="0 0 864 284.54">
  <path d="M297.51,90.81L378.81,0l19.03,17.3-81.3,89.95-19.03-16.43ZM443.68,0l-81.3,89.95,19.03,17.3,81.3-89.95L443.68,0ZM509.41,0l-81.3,89.95,19.03,17.3,81.3-89.95L509.41,0Z" fill="#ec008c" fill-rule="evenodd" stroke-width="0"></path>
  <path d="M108.11,225.73c0-10.38-2.59-19.03-6.92-27.68-5.19-7.78-11.24-13.84-19.03-18.16-7.78-4.32-17.3-6.05-27.68-6.05s-19.89,2.59-28.54,6.92c-8.65,5.19-14.7,11.24-19.03,19.03s-6.92,16.43-6.92,25.95c0,10.38,2.59,19.03,6.92,27.68,5.19,7.78,11.24,13.84,19.03,18.16s17.3,6.05,27.68,6.05c8.65,0,16.43-1.73,23.35-5.19l9.51,12.11,15.57-12.97-8.65-10.38c2.59-2.59,5.19-6.05,6.92-9.51,6.05-7.78,7.78-16.43,7.78-25.95ZM66.59,228.32l-15.57,12.97,11.24,13.84c-2.59.86-6.05,1.73-8.65,1.73-6.05,0-10.38-1.73-15.57-4.32-4.32-2.59-7.78-6.05-10.38-11.24-2.59-4.32-3.46-9.51-3.46-15.57s.86-11.24,3.46-16.43c2.59-4.32,6.05-8.65,10.38-10.38,4.32-2.59,9.51-3.46,14.7-3.46,6.05,0,10.38,1.73,15.57,4.32,4.32,2.59,7.78,6.05,10.38,11.24,2.59,4.32,3.46,9.51,3.46,15.57s-.86,11.24-3.46,16.43h0l-12.11-14.7ZM168.65,256.86c13.84,0,20.76-8.65,20.76-25.95v-55.35h25.08v57.08c0,14.7-4.32,25.95-12.11,33.73-7.78,7.78-19.03,12.11-33.73,12.11s-25.95-4.32-33.73-12.11c-7.78-7.78-12.11-19.03-12.11-33.73v-57.08h24.22v55.35c0,8.65,1.73,14.7,5.19,19.03,3.46,4.32,9.51,6.92,16.43,6.92ZM258.59,175.57h-25.08v100.32h25.08v-100.32ZM349.41,252.54v21.62c-.86,0-1.73.86-2.59.86-6.05,1.73-12.11,2.59-18.16,2.59-11.24,0-20.76-1.73-28.54-6.05-7.78-4.32-14.7-9.51-19.03-17.3-4.32-7.78-6.92-17.3-6.92-27.68,0-6.92.86-13.84,3.46-19.89,2.59-6.05,6.05-12.11,11.24-16.43,4.32-4.32,10.38-8.65,17.3-11.24s14.7-4.32,22.49-4.32c6.05,0,11.24.86,17.3,1.73.86,0,1.73.86,2.59.86v21.62c-1.73-.86-3.46-.86-4.32-1.73-4.32-.86-9.51-1.73-13.84-1.73-9.51,0-17.3,2.59-22.49,7.78s-8.65,12.97-8.65,21.62c0,9.51,2.59,16.43,8.65,21.62,5.19,5.19,12.97,7.78,22.49,7.78,4.32,0,9.51-.86,14.7-2.59,2.59,1.73,3.46,1.73,4.32.86ZM457.51,176.43h-29.41l-37.19,43.24v-43.24h-24.22v100.32h24.22v-44.97l38.05,44.97h32l-46.7-52.76,43.24-47.57ZM612.32,195.46h-31.14v-19.03h87.35v19.03h-31.14v80.43h-25.08v-80.43ZM704,235.24h38.05v-19.03h-38.05v-20.76h42.38v-19.03h-65.73v100.32h67.46v-19.03h-44.11s0-22.49,0-22.49ZM800.86,176.43c12.11,0,21.62,3.46,28.54,8.65,6.92,6.05,10.38,13.84,10.38,25.08,0,10.38-3.46,19.03-10.38,25.08-6.92,6.05-16.43,8.65-28.54,8.65h-12.11v32h-23.35v-99.46h35.46ZM788.76,225.73h8.65c12.97,0,19.03-5.19,19.03-15.57,0-5.19-1.73-9.51-5.19-12.11s-7.78-3.46-13.84-3.46h-8.65v31.14ZM565.62,225.73c-3.46-3.46-7.78-6.05-13.84-7.78-1.73-.86-4.32-1.73-6.92-2.59h0c-2.59-.86-5.19-1.73-7.78-2.59-5.19-1.73-10.38-4.32-10.38-10.38,0-7.78,9.51-8.65,12.97-8.65,6.92,0,16.43,4.32,22.49,10.38h0l10.38-16.43h0c-6.92-6.92-20.76-12.11-32-12.11s-20.76,2.59-26.81,7.78c-4.32,3.46-10.38,10.38-10.38,22.49,0,7.78,2.59,14.7,7.78,19.89,3.46,3.46,7.78,6.05,11.24,6.92l.86.86c2.59.86,7.78,2.59,11.24,4.32h.86c.86,0,1.73.86,1.73.86h.86c4.32,1.73,11.24,4.32,11.24,11.24,0,6.05-5.19,10.38-12.97,10.38s-19.03-5.19-25.95-12.11h0l-12.11,17.3h0c5.19,4.32,18.16,15.57,35.46,15.57,11.24,0,20.76-2.59,27.68-8.65,7.78-6.05,12.11-14.7,12.11-24.22.86-10.38-2.59-17.3-7.78-22.49h0ZM482.59,223.14c0,6.92-5.19,12.11-12.11,12.11s-12.11-5.19-12.11-12.11,5.19-12.11,12.11-12.11,12.11,5.19,12.11,12.11ZM859.68,182.49c0-1.73-1.73-3.46-3.46-3.46h-3.46v11.24h1.73v-4.32h1.73l2.59,4.32h1.73l-2.59-4.32s1.73-.86,1.73-3.46ZM855.35,184.22h-1.73v-2.59h1.73c.86,0,2.59,0,2.59,1.73,0,.86-1.73.86-2.59.86ZM846.7,185.08c0-5.19,4.32-8.65,8.65-8.65,5.19,0,8.65,4.32,8.65,8.65,0,5.19-4.32,8.65-8.65,8.65s-8.65-3.46-8.65-8.65ZM847.57,185.08c0,4.32,3.46,7.78,7.78,7.78s7.78-3.46,7.78-7.78-3.46-7.78-7.78-7.78-7.78,3.46-7.78,7.78Z" fill="#fff" fill-rule="evenodd" stroke-width="0"></path>
</svg>
